<?xml version="1.0" encoding="UTF-8" standalone="no"?>
<!DOCTYPE svg PUBLIC "-//W3C//DTD SVG 1.1//EN" "http://www.w3.org/Graphics/SVG/1.1/DTD/svg11.dtd">
<svg width="100%" height="100%" viewBox="0 0 16 16" version="1.1" xmlns="http://www.w3.org/2000/svg" xmlns:xlink="http://www.w3.org/1999/xlink" xml:space="preserve" xmlns:serif="http://www.serif.com/" style="fill-rule:evenodd;clip-rule:evenodd;stroke-linejoin:round;stroke-miterlimit:2;">
    <g transform="matrix(3.77953,0,0,3.77953,1.88976e-07,0)">
        <path d="M0,0L0,4.233L4.233,4.233L4.233,0L0,0ZM0.265,0.265L3.969,0.265L3.969,3.969L0.265,3.969L0.265,0.265Z" style="fill:rgb(141,165,243);fill-rule:nonzero;"/>
        <rect x="0.529" y="0.529" width="0.794" height="0.794" style="fill:rgb(141,165,243);fill-rule:nonzero;"/>
        <rect x="2.117" y="0.529" width="0.794" height="0.794" style="fill:rgb(141,165,243);fill-rule:nonzero;"/>
        <rect x="2.91" y="1.323" width="0.794" height="0.794" style="fill:rgb(141,165,243);fill-rule:nonzero;"/>
        <rect x="1.323" y="1.323" width="0.794" height="0.794" style="fill:rgb(141,165,243);fill-rule:nonzero;"/>
        <rect x="0.529" y="2.117" width="0.794" height="0.794" style="fill:rgb(141,165,243);fill-rule:nonzero;"/>
        <rect x="2.117" y="2.117" width="0.794" height="0.794" style="fill:rgb(141,165,243);fill-rule:nonzero;"/>
        <rect x="1.323" y="2.91" width="0.794" height="0.794" style="fill:rgb(141,165,243);fill-rule:nonzero;"/>
        <rect x="2.91" y="2.91" width="0.794" height="0.794" style="fill:rgb(141,165,243);fill-rule:nonzero;"/>
    </g>
</svg>
