<?xml version="1.0" encoding="UTF-8" standalone="no"?>
<!DOCTYPE svg PUBLIC "-//W3C//DTD SVG 1.1//EN" "http://www.w3.org/Graphics/SVG/1.1/DTD/svg11.dtd">
<svg width="100%" height="100%" viewBox="0 0 16 16" version="1.1" xmlns="http://www.w3.org/2000/svg" xmlns:xlink="http://www.w3.org/1999/xlink" xml:space="preserve" xmlns:serif="http://www.serif.com/" style="fill-rule:evenodd;clip-rule:evenodd;stroke-linejoin:round;stroke-miterlimit:2;">
    <g transform="matrix(3.77953,0,0,3.77953,1.88976e-07,0)">
        <g transform="matrix(0.600901,0,0,0.600901,0.105595,0.261207)">
            <g transform="matrix(0.264583,0,0,0.231508,-4.99999e-08,0.264583)">
                <rect x="1" y="0" width="1" height="15.999" style="fill:rgb(223,223,224);"/>
            </g>
            <g transform="matrix(0.264535,0,0,0.264583,0.000395778,0.26044)">
                <path d="M15,0L15,7.999C15,7.999 12.401,6.833 11.065,6.999C9.729,7.166 8.328,8.833 6.984,9C5.64,9.167 3,7.999 3,7.999L3,0C3,0 5.663,1.167 6.996,1.001C8.329,0.834 9.664,-0.833 10.998,-1C12.332,-1.167 15,0 15,0Z" style="fill:rgb(223,223,224);"/>
            </g>
        </g>
        <g transform="matrix(0.5,0,0,0.5,1.85208,1.85208)">
            <path d="M0.341,2.646L-0,2.646L-0,1.587L0.341,1.587C0.378,1.464 0.427,1.347 0.487,1.236L0.139,0.887L0.887,0.139L1.236,0.487C1.347,0.427 1.464,0.378 1.587,0.341L1.587,0L2.646,0L2.646,0.341C2.769,0.378 2.887,0.427 2.998,0.487L3.346,0.139L4.094,0.887L3.746,1.236C3.806,1.347 3.855,1.464 3.892,1.587L4.233,1.587L4.233,2.646L3.892,2.646C3.846,2.799 3.781,2.944 3.7,3.077L3.969,3.346L3.22,4.094L2.914,3.788C2.828,3.83 2.739,3.864 2.646,3.892L2.646,4.233L1.587,4.233L1.587,3.892C1.464,3.855 1.347,3.806 1.236,3.746L0.887,4.094L0.139,3.346L0.487,2.998C0.427,2.887 0.378,2.769 0.341,2.646ZM2.117,1.323C1.679,1.323 1.323,1.679 1.323,2.117C1.323,2.555 1.679,2.91 2.117,2.91C2.555,2.91 2.91,2.555 2.91,2.117C2.91,1.679 2.555,1.323 2.117,1.323Z" style="fill:rgb(223,223,224);"/>
        </g>
    </g>
</svg>
