<?xml version="1.0" encoding="UTF-8" standalone="no"?>
<!DOCTYPE svg PUBLIC "-//W3C//DTD SVG 1.1//EN" "http://www.w3.org/Graphics/SVG/1.1/DTD/svg11.dtd">
<svg width="100%" height="100%" viewBox="0 0 16 16" version="1.1" xmlns="http://www.w3.org/2000/svg" xmlns:xlink="http://www.w3.org/1999/xlink" xml:space="preserve" xmlns:serif="http://www.serif.com/" style="fill-rule:evenodd;clip-rule:evenodd;stroke-linejoin:round;stroke-miterlimit:2;">
    <g transform="matrix(3.77953,0,0,3.77953,1.88976e-07,0)">
        <g>
            <g transform="matrix(0.23151,0,0,0.23151,0.264583,0.264583)">
                <path d="M8,0C12.415,0 16,3.585 16,8C16,12.415 12.415,16 8,16C3.585,16 0,12.415 0,8C0,3.585 3.585,0 8,0ZM8,4.571C6.108,4.571 4.571,6.108 4.571,8C4.571,9.892 6.108,11.429 8,11.429C9.892,11.429 11.429,9.892 11.429,8C11.429,6.108 9.892,4.571 8,4.571Z" style="fill:rgb(223,223,224);"/>
            </g>
            <g transform="matrix(0.529166,0,0,0.396875,-2.11667,0)">
                <rect x="7" y="0" width="2" height="2" style="fill:rgb(223,223,224);"/>
            </g>
            <g transform="matrix(0.529166,0,0,0.396875,-2.11667,3.43958)">
                <rect x="7" y="0" width="2" height="2" style="fill:rgb(223,223,224);"/>
            </g>
            <g transform="matrix(3.24021e-17,0.529166,-0.396875,2.43016e-17,0.793749,-2.11667)">
                <rect x="7" y="0" width="2" height="2" style="fill:rgb(223,223,224);"/>
            </g>
            <g transform="matrix(3.24021e-17,0.529166,-0.396875,2.43016e-17,4.23333,-2.11667)">
                <rect x="7" y="0" width="2" height="2" style="fill:rgb(223,223,224);"/>
            </g>
            <g transform="matrix(0.374177,0.374177,-0.280633,0.280633,0.726797,-2.4803)">
                <rect x="7" y="0" width="2" height="2" style="fill:rgb(223,223,224);"/>
            </g>
            <g transform="matrix(0.374177,-0.374177,0.280633,0.280633,-2.4803,3.50653)">
                <rect x="7" y="0" width="2" height="2" style="fill:rgb(223,223,224);"/>
            </g>
            <g transform="matrix(-0.374177,-0.374177,0.280633,-0.280633,3.50653,6.71363)">
                <rect x="7" y="0" width="2" height="2" style="fill:rgb(223,223,224);"/>
            </g>
            <g transform="matrix(-0.374177,0.374177,-0.280633,-0.280633,6.58799,0.726797)">
                <rect x="7" y="0" width="2" height="2" style="fill:rgb(223,223,224);"/>
            </g>
        </g>
    </g>
</svg>
