<?xml version="1.0" encoding="UTF-8" standalone="no"?>
<!DOCTYPE svg PUBLIC "-//W3C//DTD SVG 1.1//EN" "http://www.w3.org/Graphics/SVG/1.1/DTD/svg11.dtd">
<svg width="100%" height="100%" viewBox="0 0 16 16" version="1.1" xmlns="http://www.w3.org/2000/svg" xmlns:xlink="http://www.w3.org/1999/xlink" xml:space="preserve" xmlns:serif="http://www.serif.com/" style="fill-rule:evenodd;clip-rule:evenodd;stroke-linejoin:round;stroke-miterlimit:2;">
    <g transform="matrix(3.77953,0,0,3.77953,1.88976e-07,0)">
        <path d="M2.117,4.233C3.44,4.233 3.44,3.44 3.44,3.44C3.44,3.44 3.44,2.646 2.117,2.646C0.794,2.646 0.794,3.44 0.794,3.44C0.794,3.44 0.794,4.233 2.117,4.233" style="fill:rgb(141,165,243);fill-rule:nonzero;"/>
        <g>
            <path d="M2.117,0C2.91,0 2.91,0.794 2.91,0.794C2.91,0.794 2.91,1.587 2.117,1.587C1.323,1.587 1.323,0.794 1.323,0.794C1.323,0.794 1.323,0 2.117,0Z" style="fill:rgb(141,165,243);fill-rule:nonzero;"/>
            <path d="M1.72,1.323L1.124,2.91L3.109,2.91L2.514,1.323L1.72,1.323Z" style="fill:rgb(141,165,243);fill-rule:nonzero;"/>
        </g>
    </g>
</svg>
